<svg width="243" height="31" viewBox="0 0 243 31" fill="none" xmlns="http://www.w3.org/2000/svg">
<path d="M26.6728 12.8006H18.8376C18.7821 12.1513 18.6339 11.5623 18.3931 11.0336C18.1616 10.5049 17.8374 10.0504 17.4206 9.67006C17.0131 9.28045 16.5177 8.98365 15.9342 8.77958C15.3507 8.56621 14.6886 8.45957 13.9476 8.45957C12.6511 8.45957 11.5536 8.77493 10.6552 9.40571C9.76611 10.0364 9.09003 10.9408 8.62699 12.1189C8.17315 13.2969 7.94626 14.7115 7.94626 16.3626C7.94626 18.1064 8.1778 19.5674 8.64088 20.7454C9.11322 21.9141 9.7939 22.7954 10.683 23.389C11.5721 23.9734 12.6418 24.2655 13.8921 24.2655C14.6052 24.2655 15.2442 24.1774 15.8092 24.0012C16.3741 23.8157 16.865 23.5513 17.2817 23.2081C17.6985 22.8649 18.0365 22.4522 18.2959 21.9698C18.5644 21.4782 18.745 20.9263 18.8376 20.314L26.6728 20.3697C26.5801 21.5756 26.2421 22.8046 25.6586 24.0569C25.0752 25.2998 24.2463 26.45 23.172 27.5075C22.1069 28.5556 20.7872 29.3997 19.2127 30.0398C17.6383 30.6796 15.8092 31 13.7253 31C11.1137 31 8.77055 30.4386 6.69596 29.3162C4.63071 28.1939 2.99607 26.5428 1.79211 24.363C0.597355 22.1832 0 19.5163 0 16.3626C0 13.1902 0.611251 10.5188 1.83375 8.34823C3.05625 6.16841 4.7048 4.52195 6.77934 3.40888C8.85388 2.2865 11.1692 1.72532 13.7253 1.72532C15.5221 1.72532 17.1752 1.97109 18.6848 2.46274C20.1944 2.95434 21.5188 3.67323 22.658 4.61937C23.7971 5.55621 24.714 6.71107 25.4086 8.08388C26.1032 9.45673 26.5246 11.0289 26.6728 12.8006ZM37.9566 18.5888V30.6102H30.2883V2.11488H37.6787V13.3015H37.9012C38.3825 11.938 39.1836 10.8759 40.3042 10.1153C41.4249 9.34538 42.7725 8.96043 44.347 8.96043C45.8564 8.96043 47.1669 9.30367 48.2782 9.99008C49.3988 10.6765 50.2648 11.6226 50.876 12.8285C51.4966 14.0343 51.8023 15.4164 51.7929 16.9748V30.6102H44.1245V18.5888C44.1339 17.5313 43.8699 16.7011 43.3328 16.0982C42.8051 15.4953 42.05 15.1938 41.0683 15.1938C40.4481 15.1938 39.9016 15.3329 39.4293 15.6112C38.966 15.8802 38.605 16.2698 38.3454 16.78C38.0956 17.2809 37.966 17.8838 37.9566 18.5888ZM61.5244 30.9441C60.1629 30.9441 58.9592 30.7217 57.9123 30.2763C56.8752 29.8218 56.0602 29.1354 55.4673 28.2171C54.8748 27.2988 54.5786 26.13 54.5786 24.7108C54.5786 23.542 54.7774 22.5449 55.176 21.7193C55.5741 20.8845 56.1299 20.2028 56.843 19.674C57.5562 19.1453 58.385 18.7418 59.3296 18.4635C60.2836 18.1853 61.3113 18.0044 62.4136 17.9209C63.6084 17.8281 64.5668 17.7168 65.2893 17.587C66.0208 17.4478 66.5489 17.2577 66.8728 17.0165C67.1972 16.766 67.359 16.4368 67.359 16.0286V15.973C67.359 15.4164 67.1463 14.9897 66.72 14.6929C66.2942 14.3961 65.7477 14.2477 65.0807 14.2477C64.3492 14.2477 63.7518 14.41 63.2889 14.7347C62.8349 15.05 62.5619 15.537 62.469 16.1956H55.4119C55.5044 14.897 55.9168 13.7004 56.6483 12.6059C57.3891 11.502 58.4682 10.6208 59.885 9.96224C61.3023 9.29437 63.0713 8.96043 65.1919 8.96043C66.72 8.96043 68.0909 9.14132 69.304 9.50309C70.5171 9.85556 71.5497 10.3518 72.4018 10.9918C73.2539 11.6226 73.9022 12.3647 74.3468 13.2181C74.8008 14.0621 75.0273 14.9804 75.0273 15.973V30.6102H67.8594V27.6049H67.6923C67.2665 28.4026 66.7477 29.0473 66.1365 29.5389C65.5346 30.0305 64.8447 30.3876 64.0668 30.6102C63.2978 30.8327 62.4506 30.9441 61.5244 30.9441ZM64.0248 26.1022C64.6084 26.1022 65.1548 25.9816 65.6642 25.7404C66.183 25.4993 66.6043 25.1514 66.9287 24.6969C67.2526 24.2424 67.4148 23.6905 67.4148 23.0411V21.2602C67.2111 21.3437 66.9935 21.4225 66.7616 21.4967C66.5395 21.5709 66.2987 21.6405 66.0395 21.7054C65.7893 21.7704 65.5208 21.8306 65.2335 21.8863C64.956 21.942 64.6642 21.993 64.3586 22.0394C63.7657 22.1321 63.2795 22.2852 62.8997 22.4985C62.5293 22.7026 62.2514 22.9577 62.0664 23.2638C61.8903 23.5606 61.8023 23.8945 61.8023 24.2655C61.8023 24.8592 62.0106 25.3137 62.4274 25.6291C62.8443 25.9445 63.3769 26.1022 64.0248 26.1022ZM78.6916 30.6102V9.23874H86.3599V30.6102H78.6916ZM82.5257 7.01252C81.4887 7.01252 80.5995 6.66932 79.8587 5.98291C79.1174 5.29651 78.747 4.47093 78.747 3.50626C78.747 2.54159 79.1174 1.71601 79.8587 1.02961C80.5995 0.343202 81.4887 0 82.5257 0C83.5722 0 84.4614 0.343202 85.1932 1.02961C85.9341 1.71601 86.3045 2.54159 86.3045 3.50626C86.3045 4.47093 85.9341 5.29651 85.1932 5.98291C84.4614 6.66932 83.5722 7.01252 82.5257 7.01252ZM97.9354 18.5888V30.6102H90.267V9.23874H97.5466V13.3015H97.7687C98.232 11.9473 99.047 10.8852 100.214 10.1153C101.39 9.34538 102.761 8.96043 104.326 8.96043C105.836 8.96043 107.146 9.30828 108.257 10.004C109.378 10.6904 110.244 11.6365 110.855 12.8424C111.476 14.0483 111.781 15.4257 111.772 16.9748V30.6102H104.104V18.5888C104.113 17.5313 103.844 16.7011 103.298 16.0982C102.761 15.4953 102.01 15.1938 101.047 15.1938C100.417 15.1938 99.8665 15.3329 99.3942 15.6112C98.9313 15.8802 98.5747 16.2698 98.3245 16.78C98.0743 17.2809 97.9448 17.8838 97.9354 18.5888ZM115.446 30.6102V2.11488H135.451V8.34823H123.171V13.2459H134.229V19.4792H123.171V30.6102H115.446ZM150.903 21.2602V9.23874H158.571V30.6102H151.291V26.5474H151.069C150.606 27.911 149.796 28.9777 148.638 29.7476C147.48 30.5082 146.105 30.8886 144.512 30.8886C143.021 30.8886 141.715 30.5453 140.595 29.8589C139.483 29.1725 138.617 28.2263 137.997 27.0205C137.385 25.8146 137.075 24.4325 137.066 22.8742V9.23874H144.734V21.2602C144.744 22.3176 145.012 23.1478 145.54 23.7508C146.077 24.3537 146.828 24.6552 147.791 24.6552C148.43 24.6552 148.981 24.5206 149.444 24.2517C149.916 23.9734 150.277 23.5838 150.527 23.0829C150.787 22.5727 150.912 21.9652 150.903 21.2602ZM181.975 16.1956H174.918C174.881 15.7596 174.728 15.384 174.46 15.0686C174.191 14.7532 173.844 14.512 173.418 14.3451C173.001 14.1688 172.538 14.0807 172.029 14.0807C171.371 14.0807 170.806 14.2013 170.334 14.4425C169.862 14.6836 169.63 15.0268 169.64 15.4721C169.63 15.7875 169.764 16.0796 170.042 16.3486C170.329 16.6176 170.88 16.8264 171.695 16.9748L176.03 17.7539C178.215 18.1528 179.841 18.8253 180.906 19.7714C181.98 20.7083 182.522 21.9652 182.531 23.542C182.522 25.0633 182.068 26.3851 181.17 27.5075C180.281 28.6206 179.063 29.4832 177.516 30.0954C175.979 30.6984 174.224 31 172.251 31C168.991 31 166.439 30.332 164.597 28.9963C162.763 27.6605 161.739 25.8981 161.527 23.709H169.139C169.241 24.3861 169.575 24.9102 170.14 25.2813C170.714 25.643 171.436 25.8239 172.307 25.8239C173.01 25.8239 173.589 25.7033 174.043 25.4622C174.506 25.221 174.742 24.8778 174.752 24.4325C174.742 24.0244 174.539 23.6997 174.14 23.4586C173.752 23.2174 173.14 23.0226 172.307 22.8742L168.528 22.2063C166.351 21.826 164.721 21.1025 163.638 20.0358C162.554 18.9691 162.017 17.5962 162.027 15.9173C162.017 14.4332 162.406 13.1763 163.193 12.1467C163.99 11.1078 165.124 10.3194 166.597 9.78136C168.079 9.23409 169.834 8.96043 171.862 8.96043C174.946 8.96043 177.377 9.60047 179.156 10.8805C180.943 12.1606 181.883 13.9323 181.975 16.1956ZM185.469 30.6102V9.23874H193.138V30.6102H185.469ZM189.303 7.01252C188.266 7.01252 187.377 6.66932 186.636 5.98291C185.896 5.29651 185.525 4.47093 185.525 3.50626C185.525 2.54159 185.896 1.71601 186.636 1.02961C187.377 0.343202 188.266 0 189.303 0C190.35 0 191.239 0.343202 191.971 1.02961C192.712 1.71601 193.082 2.54159 193.082 3.50626C193.082 4.47093 192.712 5.29651 191.971 5.98291C191.239 6.66932 190.35 7.01252 189.303 7.01252ZM207.325 31C205.01 31 203.028 30.5406 201.379 29.6223C199.731 28.6948 198.467 27.4054 197.587 25.7543C196.707 24.094 196.267 22.1692 196.267 19.9801C196.267 17.791 196.707 15.871 197.587 14.2198C198.467 12.5595 199.731 11.2701 201.379 10.3518C203.028 9.42424 205.01 8.96043 207.325 8.96043C209.641 8.96043 211.622 9.42424 213.271 10.3518C214.919 11.2701 216.183 12.5595 217.063 14.2198C217.943 15.871 218.383 17.791 218.383 19.9801C218.383 22.1692 217.943 24.094 217.063 25.7543C216.183 27.4054 214.919 28.6948 213.271 29.6223C211.622 30.5406 209.641 31 207.325 31ZM207.381 25.323C208.029 25.323 208.589 25.105 209.062 24.6691C209.534 24.2331 209.9 23.6116 210.159 22.8046C210.419 21.9976 210.548 21.0376 210.548 19.9245C210.548 18.8021 210.419 17.842 210.159 17.0443C209.9 16.2373 209.534 15.6159 209.062 15.1799C208.589 14.7439 208.029 14.5259 207.381 14.5259C206.695 14.5259 206.107 14.7439 205.617 15.1799C205.126 15.6159 204.751 16.2373 204.491 17.0443C204.232 17.842 204.102 18.8021 204.102 19.9245C204.102 21.0376 204.232 21.9976 204.491 22.8046C204.751 23.6116 205.126 24.2331 205.617 24.6691C206.107 25.105 206.695 25.323 207.381 25.323ZM229.164 18.5888V30.6102H221.495V9.23874H228.774V13.3015H228.997C229.46 11.9473 230.275 10.8852 231.442 10.1153C232.618 9.34538 233.989 8.96043 235.554 8.96043C237.063 8.96043 238.374 9.30828 239.485 10.004C240.606 10.6904 241.472 11.6365 242.083 12.8424C242.704 14.0483 243.009 15.4257 243 16.9748V30.6102H235.331V18.5888C235.341 17.5313 235.072 16.7011 234.526 16.0982C233.989 15.4953 233.239 15.1938 232.275 15.1938C231.646 15.1938 231.094 15.3329 230.622 15.6112C230.159 15.8802 229.802 16.2698 229.552 16.78C229.302 17.2809 229.173 17.8838 229.164 18.5888Z" fill="white"/>
</svg>
