<svg width="14" height="14" viewBox="0 0 14 14" fill="none" xmlns="http://www.w3.org/2000/svg">
<g clip-path="url(#clip0_1_8798)">
<path d="M7 0C10.8663 0 14 3.13428 14 7C14 10.8663 10.8663 14 7 14C3.13428 14 0 10.866 0 7C0 3.13428 3.13428 0 7 0Z" fill="#F5AC37"/>
<path d="M7.25799 7.49424H9.91788C9.97458 7.49424 10.0014 7.49424 10.0054 7.4199C10.0272 7.14931 10.0272 6.87715 10.0054 6.60624C10.0054 6.55364 9.9793 6.5319 9.92228 6.5319H4.62866C4.56314 6.5319 4.5455 6.55364 4.5455 6.61506V7.39375C4.5455 7.49424 4.5455 7.49424 4.65039 7.49424H7.25799V7.49424ZM9.7084 5.62186C9.71596 5.60201 9.71596 5.58028 9.7084 5.56075C9.66398 5.46404 9.61138 5.37175 9.55027 5.28512C9.45829 5.13707 9.34992 5.00067 9.22644 4.87814C9.16817 4.80411 9.10076 4.73764 9.02516 4.68126C8.64652 4.35901 8.19638 4.13095 7.71254 4.01629C7.46841 3.96148 7.21893 3.93533 6.96882 3.93754H4.61952C4.554 3.93754 4.54518 3.96368 4.54518 4.0207V5.57366C4.54518 5.63918 4.54518 5.65682 4.62834 5.65682H9.6769C9.6769 5.65682 9.72068 5.648 9.7295 5.62186H9.70808H9.7084ZM9.7084 8.40428C9.63406 8.39609 9.55909 8.39609 9.48475 8.40428H4.63307C4.56755 8.40428 4.5455 8.40428 4.5455 8.49185V10.0102C4.5455 10.0801 4.5455 10.0977 4.63307 10.0977H6.87305C6.98016 10.1059 7.08726 10.0984 7.19215 10.076C7.51724 10.0527 7.83696 9.98213 8.14189 9.8659C8.25277 9.82747 8.35987 9.77738 8.46099 9.71721H8.49154C9.01665 9.44411 9.44317 9.01507 9.71218 8.48839C9.71218 8.48839 9.74273 8.42224 9.7084 8.40491V8.40428ZM3.66632 10.8849V10.8588V9.83943V9.49388V8.46571C3.66632 8.40869 3.66632 8.40019 3.59639 8.40019H2.64697C2.59437 8.40019 2.57263 8.40019 2.57263 8.33026V7.49896H3.58757C3.64427 7.49896 3.66632 7.49896 3.66632 7.42462V6.60215C3.66632 6.54954 3.66632 6.53663 3.59639 6.53663H2.64697C2.59437 6.53663 2.57263 6.53663 2.57263 6.4667V5.69683C2.57263 5.64863 2.57263 5.63572 2.64256 5.63572H3.58316C3.64868 5.63572 3.66632 5.63572 3.66632 5.55256V3.19444C3.66632 3.12451 3.66632 3.10687 3.75389 3.10687H7.03497C7.27311 3.11632 7.50968 3.14247 7.74372 3.18562C8.22599 3.27477 8.68936 3.44708 9.11304 3.69309C9.39402 3.85847 9.65264 4.05818 9.88291 4.28813C10.0562 4.468 10.2124 4.66267 10.351 4.86995C10.4887 5.08005 10.603 5.30465 10.6928 5.53933C10.7038 5.60044 10.7624 5.6417 10.8235 5.63131H11.6066C11.7071 5.63131 11.7071 5.63131 11.7115 5.7277V6.44528C11.7115 6.51521 11.6854 6.53285 11.6151 6.53285H11.0113C10.9501 6.53285 10.9325 6.53285 10.9369 6.6116C10.9609 6.87809 10.9609 7.14553 10.9369 7.41202C10.9369 7.48636 10.9369 7.49518 11.0204 7.49518H11.7112C11.7417 7.53456 11.7112 7.57393 11.7112 7.61362C11.7156 7.66434 11.7156 7.71568 11.7112 7.7664V8.29592C11.7112 8.37026 11.6895 8.39231 11.6236 8.39231H10.7967C10.7391 8.38129 10.683 8.41814 10.6698 8.47547C10.4729 8.98735 10.1579 9.44631 9.75092 9.81423C9.60224 9.94811 9.446 10.0741 9.28283 10.1903C9.10769 10.2911 8.93727 10.396 8.75772 10.4792C8.42728 10.6279 8.08078 10.7375 7.72514 10.8071C7.38745 10.8676 7.04505 10.895 6.70138 10.8903H3.66506V10.8859L3.66632 10.8849Z" fill="#FEFEFD"/>
</g>
<defs>
<clipPath id="clip0_1_8798">
<rect width="14" height="14" fill="white"/>
</clipPath>
</defs>
</svg>
