<svg width="275" height="35" viewBox="0 0 275 35" fill="none" xmlns="http://www.w3.org/2000/svg">
<path d="M30.1852 14.4523H21.3183C21.2554 13.7192 21.0877 13.0542 20.8152 12.4573C20.5532 11.8603 20.1864 11.3472 19.7147 10.9178C19.2536 10.4779 18.6928 10.1428 18.0325 9.91243C17.3722 9.67153 16.6229 9.55112 15.7844 9.55112C14.317 9.55112 13.075 9.90718 12.0584 10.6193C11.0522 11.3315 10.2871 12.3526 9.76305 13.6826C9.24945 15.0126 8.99268 16.6097 8.99268 18.4739C8.99268 20.4427 9.25471 22.0922 9.77878 23.4222C10.3133 24.7418 11.0836 25.7367 12.0898 26.4069C13.096 27.0667 14.3066 27.3966 15.7215 27.3966C16.5285 27.3966 17.2517 27.2971 17.891 27.0981C18.5304 26.8887 19.0859 26.5902 19.5575 26.2027C20.0291 25.8152 20.4117 25.3492 20.7052 24.8046C21.0091 24.2496 21.2135 23.6264 21.3183 22.9352L30.1852 22.9981C30.0804 24.3595 29.6979 25.7472 29.0375 27.161C28.3772 28.5643 27.4392 29.8629 26.2234 31.0568C25.0181 32.2402 23.5246 33.1933 21.7428 33.9159C19.961 34.6383 17.891 35 15.5328 35C12.5772 35 9.92552 34.3662 7.57774 33.099C5.24052 31.8318 3.39061 29.9677 2.0281 27.5066C0.676019 25.0455 0 22.0346 0 18.4739C0 14.8922 0.691744 11.876 2.07523 9.42542C3.45872 6.96433 5.32436 5.10542 7.67209 3.84873C10.0198 2.58153 12.6401 1.94794 15.5328 1.94794C17.5661 1.94794 19.437 2.22543 21.1454 2.78051C22.8538 3.33554 24.3525 4.14719 25.6417 5.21542C26.9309 6.27313 27.9685 7.57701 28.7546 9.12696C29.5406 10.6769 30.0175 12.452 30.1852 14.4523ZM42.955 20.9873V34.5599H34.2769V2.38777H42.6405V15.0179H42.8923C43.4369 13.4784 44.3436 12.2792 45.6118 11.4205C46.88 10.5512 48.405 10.1166 50.187 10.1166C51.8951 10.1166 53.3782 10.5041 54.6358 11.2791C55.904 12.0541 56.884 13.1223 57.5757 14.4837C58.2781 15.8452 58.624 17.4056 58.6133 19.1651V34.5599H49.9352V20.9873C49.9458 19.7934 49.647 18.8561 49.0391 18.1754C48.4419 17.4947 47.5874 17.1543 46.4765 17.1543C45.7746 17.1543 45.1562 17.3114 44.6217 17.6256C44.0973 17.9293 43.6887 18.3691 43.395 18.9451C43.1123 19.5107 42.9656 20.1914 42.955 20.9873ZM69.6264 34.9369C68.0856 34.9369 66.7234 34.6857 65.5386 34.1829C64.365 33.6698 63.4426 32.8948 62.7717 31.858C62.1011 30.8212 61.7659 29.5016 61.7659 27.8993C61.7659 26.5797 61.9909 25.4539 62.4419 24.5218C62.8925 23.5793 63.5215 22.8096 64.3285 22.2126C65.1356 21.6157 66.0736 21.1601 67.1426 20.8459C68.2221 20.5317 69.3852 20.3275 70.6326 20.2333C71.9848 20.1285 73.0694 20.0029 73.8871 19.8562C74.7149 19.6992 75.3125 19.4845 75.6791 19.2122C76.0462 18.9294 76.2293 18.5576 76.2293 18.0968V18.034C76.2293 17.4056 75.9886 16.9239 75.5062 16.5888C75.0243 16.2536 74.4059 16.0861 73.651 16.0861C72.8232 16.0861 72.1471 16.2693 71.6232 16.6359C71.1095 16.992 70.8005 17.5418 70.6954 18.2853H62.7089C62.8136 16.8192 63.2803 15.4682 64.1081 14.2324C64.9465 12.9861 66.1677 11.9912 67.7711 11.2477C69.375 10.4936 71.377 10.1166 73.7768 10.1166C75.5062 10.1166 77.0576 10.3208 78.4304 10.7293C79.8033 11.1272 80.9719 11.6875 81.9362 12.4102C82.9005 13.1223 83.6342 13.9601 84.1373 14.9236C84.6511 15.8766 84.9075 16.9134 84.9075 18.034V34.5599H76.7956V31.1668H76.6065C76.1246 32.0674 75.5376 32.7953 74.8458 33.3503C74.1647 33.9054 73.3839 34.3086 72.5036 34.5599C71.6334 34.8111 70.6746 34.9369 69.6264 34.9369ZM72.4561 29.4702C73.1165 29.4702 73.7349 29.3341 74.3113 29.0618C74.8984 28.7895 75.3752 28.3967 75.7423 27.8836C76.109 27.3704 76.2925 26.7473 76.2925 26.0142V24.0034C76.0619 24.0977 75.8157 24.1867 75.5532 24.2705C75.3019 24.3543 75.0294 24.4328 74.7361 24.5061C74.4529 24.5794 74.149 24.6475 73.8239 24.7104C73.5098 24.7732 73.1796 24.8308 72.8338 24.8832C72.1628 24.9879 71.6126 25.1607 71.1828 25.4016C70.7636 25.632 70.4491 25.92 70.2397 26.2656C70.0405 26.6007 69.9409 26.9777 69.9409 27.3966C69.9409 28.0669 70.1765 28.58 70.6483 28.9361C71.1201 29.2922 71.7228 29.4702 72.4561 29.4702ZM89.0543 34.5599V10.4308H97.7324V34.5599H89.0543ZM93.3933 7.91736C92.2197 7.91736 91.2134 7.52987 90.375 6.7549C89.5362 5.97993 89.117 5.04782 89.117 3.95868C89.117 2.86953 89.5362 1.93743 90.375 1.16246C91.2134 0.387486 92.2197 0 93.3933 0C94.5776 0 95.5839 0.387486 96.4121 1.16246C97.2505 1.93743 97.6697 2.86953 97.6697 3.95868C97.6697 5.04782 97.2505 5.97993 96.4121 6.7549C95.5839 7.52987 94.5776 7.91736 93.3933 7.91736ZM110.832 20.9873V34.5599H102.154V10.4308H110.392V15.0179H110.644C111.168 13.4888 112.09 12.2897 113.411 11.4205C114.742 10.5512 116.293 10.1166 118.064 10.1166C119.773 10.1166 121.256 10.5094 122.513 11.2948C123.782 12.0698 124.762 13.138 125.453 14.4995C126.156 15.8609 126.502 17.4161 126.491 19.1651V34.5599H117.813V20.9873C117.823 19.7934 117.519 18.8561 116.901 18.1754C116.293 17.4947 115.444 17.1543 114.354 17.1543C113.641 17.1543 113.018 17.3114 112.483 17.6256C111.959 17.9293 111.556 18.3691 111.273 18.9451C110.989 19.5107 110.843 20.1914 110.832 20.9873ZM130.649 34.5599V2.38777H153.288V9.42542H139.391V14.955H151.905V21.9927H139.391V34.5599H130.649ZM170.775 24.0034V10.4308H179.453V34.5599H171.215V29.9729H170.963C170.439 31.5124 169.522 32.7167 168.212 33.586C166.902 34.4447 165.345 34.8742 163.543 34.8742C161.855 34.8742 160.377 34.4866 159.109 33.7117C157.851 32.9367 156.872 31.8685 156.169 30.507C155.477 29.1455 155.126 27.5851 155.116 25.8257V10.4308H163.794V24.0034C163.805 25.1973 164.109 26.1346 164.706 26.8154C165.314 27.4961 166.163 27.8365 167.253 27.8365C167.976 27.8365 168.6 27.6846 169.124 27.3809C169.658 27.0667 170.067 26.6269 170.35 26.0613C170.643 25.4853 170.785 24.7994 170.775 24.0034ZM205.939 18.2853H197.953C197.911 17.7931 197.738 17.369 197.434 17.0129C197.13 16.6568 196.737 16.3845 196.255 16.196C195.784 15.9971 195.259 15.8976 194.683 15.8976C193.939 15.8976 193.299 16.0337 192.765 16.306C192.23 16.5783 191.968 16.9658 191.979 17.4685C191.968 17.8245 192.12 18.1544 192.435 18.4581C192.76 18.7619 193.383 18.9975 194.305 19.1651L199.21 20.0448C201.684 20.4951 203.524 21.2544 204.729 22.3226C205.945 23.3803 206.558 24.7994 206.568 26.5797C206.558 28.2973 206.044 29.7896 205.028 31.0568C204.021 32.3135 202.643 33.2875 200.893 33.9787C199.153 34.6595 197.167 35 194.935 35C191.245 35 188.357 34.2458 186.272 32.7377C184.197 31.2296 183.038 29.2398 182.798 26.7682H191.413C191.528 27.5327 191.906 28.1245 192.545 28.5434C193.195 28.9518 194.012 29.156 194.997 29.156C195.794 29.156 196.449 29.0199 196.962 28.7476C197.487 28.4753 197.754 28.0878 197.764 27.5851C197.754 27.1243 197.523 26.7578 197.072 26.4855C196.633 26.2132 195.941 25.9933 194.997 25.8257L190.721 25.0717C188.258 24.6423 186.413 23.8254 185.187 22.621C183.961 21.4167 183.353 19.8667 183.363 17.9712C183.353 16.2955 183.793 14.8765 184.684 13.714C185.585 12.5411 186.869 11.6509 188.536 11.0435C190.213 10.4256 192.199 10.1166 194.494 10.1166C197.984 10.1166 200.735 10.8392 202.748 12.2845C204.771 13.7297 205.835 15.73 205.939 18.2853ZM209.893 34.5599V10.4308H218.571V34.5599H209.893ZM214.232 7.91736C213.059 7.91736 212.052 7.52987 211.214 6.7549C210.376 5.97993 209.956 5.04782 209.956 3.95868C209.956 2.86953 210.376 1.93743 211.214 1.16246C212.052 0.387486 213.059 0 214.232 0C215.417 0 216.423 0.387486 217.251 1.16246C218.089 1.93743 218.509 2.86953 218.509 3.95868C218.509 5.04782 218.089 5.97993 217.251 6.7549C216.423 7.52987 215.417 7.91736 214.232 7.91736ZM234.627 35C232.007 35 229.764 34.4814 227.898 33.4446C226.033 32.3973 224.602 30.9416 223.606 29.0775C222.611 27.2029 222.113 25.0298 222.113 22.5582C222.113 20.0866 222.611 17.9188 223.606 16.0547C224.602 14.18 226.033 12.7243 227.898 11.6875C229.764 10.6403 232.007 10.1166 234.627 10.1166C237.248 10.1166 239.49 10.6403 241.356 11.6875C243.221 12.7243 244.652 14.18 245.648 16.0547C246.644 17.9188 247.141 20.0866 247.141 22.5582C247.141 25.0298 246.644 27.2029 245.648 29.0775C244.652 30.9416 243.221 32.3973 241.356 33.4446C239.49 34.4814 237.248 35 234.627 35ZM234.69 28.5905C235.424 28.5905 236.058 28.3444 236.592 27.8522C237.127 27.3599 237.541 26.6583 237.834 25.7472C238.128 24.836 238.275 23.7521 238.275 22.4954C238.275 21.2282 238.128 20.1442 237.834 19.2436C237.541 18.3325 237.127 17.6308 236.592 17.1386C236.058 16.6464 235.424 16.4003 234.69 16.4003C233.914 16.4003 233.249 16.6464 232.694 17.1386C232.138 17.6308 231.714 18.3325 231.42 19.2436C231.127 20.1442 230.98 21.2282 230.98 22.4954C230.98 23.7521 231.127 24.836 231.42 25.7472C231.714 26.6583 232.138 27.3599 232.694 27.8522C233.249 28.3444 233.914 28.5905 234.69 28.5905ZM259.341 20.9873V34.5599H250.663V10.4308H258.901V15.0179H259.153C259.677 13.4888 260.599 12.2897 261.92 11.4205C263.251 10.5512 264.802 10.1166 266.573 10.1166C268.282 10.1166 269.765 10.5094 271.022 11.2948C272.29 12.0698 273.27 13.138 273.962 14.4995C274.665 15.8609 275.01 17.4161 275 19.1651V34.5599H266.322V20.9873C266.332 19.7934 266.028 18.8561 265.41 18.1754C264.802 17.4947 263.953 17.1543 262.863 17.1543C262.15 17.1543 261.526 17.3114 260.992 17.6256C260.468 17.9293 260.065 18.3691 259.781 18.9451C259.499 19.5107 259.352 20.1914 259.341 20.9873Z" fill="#1565C0"/>
</svg>
